<svg xmlns="http://www.w3.org/2000/svg" width="35.125" height="26.156" viewBox="0 0 35.125 26.156">
  <defs>
    <style>
      .cls-1 {
        fill: #fff;
        fill-rule: evenodd;
      }
    </style>
  </defs>
  <path class="cls-1" d="M474.338,37.117h30.25a2.516,2.516,0,0,1,2.429,2.593V60.673a2.515,2.515,0,0,1-2.429,2.594h-30.25a2.514,2.514,0,0,1-2.428-2.594V39.495A2.33,2.33,0,0,1,474.338,37.117Zm29.753,3.076L491.031,49A3.341,3.341,0,0,1,488,49c-1.478-.846-13.161-8.81-13.161-8.81h29.256Zm-16.6,12.376s1.5,1.3,4.249-.216,12.352-7.545,12.352-7.545V58.652s0.521,1.538-1.463,1.538H476.3s-1.463.775-1.463-1.538V44.809Z" transform="translate(-471.906 -37.125)"/>
</svg>
