<svg xmlns="http://www.w3.org/2000/svg" xmlns:xlink="http://www.w3.org/1999/xlink" width="37.437" height="38.031" viewBox="0 0 37.437 38.031">
  <defs>
    <style>
      .cls-1 {
        fill: #1b1b1b;
        fill-rule: evenodd;
        filter: url(#filter);
      }
    </style>
    <filter id="filter" x="368.688" y="30" width="37.437" height="38.031" filterUnits="userSpaceOnUse">
      <feFlood result="flood" flood-color="#fff"/>
      <feComposite result="composite" operator="in" in2="SourceGraphic"/>
      <feBlend result="blend" in2="SourceGraphic"/>
    </filter>
  </defs>
  <path id="n" class="cls-1" d="M387.529,29.985a18.886,18.886,0,0,1,0,37.767,18.282,18.282,0,0,1-8.511-2.09c-0.247-.13-0.733-0.406-0.733-0.406l-9.612,2.765,2.84-9.556s-0.288-.509-0.423-0.769a19.04,19.04,0,0,1-2.153-8.828A18.74,18.74,0,0,1,387.529,29.985Zm0,3.091a15.794,15.794,0,0,1,0,31.585,15.285,15.285,0,0,1-7.964-2.227c-0.2-.119-0.584-0.372-0.584-0.372L373.3,63.451l1.448-5.581s-0.238-.355-0.351-0.536a15.892,15.892,0,0,1-2.42-8.465A15.671,15.671,0,0,1,387.529,33.077ZM380.45,40.2s-4.483,3.12-.53,9a20.294,20.294,0,0,0,9,7.662c2.17,0.776,6.011,1.854,7.675-.941l0.265-2.285s0.27-.329-0.53-0.807-3.572-1.747-3.572-1.747a0.6,0.6,0,0,0-.927.27,22.173,22.173,0,0,1-1.455,1.881s0.109,0.58-.794.269-4.9-2.47-6.484-5.645c0,0-.3-0.254.132-0.941l1.059-1.344a1.273,1.273,0,0,0,.132-1.209c-0.246-.776-1.852-3.9-1.852-3.9a0.819,0.819,0,0,0-.662-0.4A10.736,10.736,0,0,0,380.45,40.2Z" transform="translate(-368.688 -30)"/>
</svg>
